# Blender v2.81 (sub 16) OBJ File: ''
# www.blender.org
mtllib cup.mtl
o Cone_Cone.001
v -1.080000 2.006090 0.000000
v -0.660000 0.006090 -0.000000
v -1.059248 2.006090 0.210698
v -0.647318 0.006090 0.128759
v -0.997790 2.006090 0.413298
v -0.609761 0.006090 0.252571
v -0.897987 2.006090 0.600016
v -0.548770 0.006090 0.366676
v -0.763675 2.006090 0.763675
v -0.466691 0.006090 0.466690
v -0.600016 2.006090 0.897987
v -0.366676 0.006090 0.548770
v -0.413298 2.006090 0.997790
v -0.252571 0.006090 0.609760
v -0.210698 2.006090 1.059248
v -0.128760 0.006090 0.647318
v -0.000000 2.006090 1.080000
v -0.000000 0.006090 0.660000
v 0.210697 2.006090 1.059248
v 0.128759 0.006090 0.647318
v 0.413298 2.006090 0.997790
v 0.252571 0.006090 0.609760
v 0.600016 2.006090 0.897987
v 0.366676 0.006090 0.548770
v 0.763675 2.006090 0.763676
v 0.466690 0.006090 0.466690
v 0.897987 2.006090 0.600016
v 0.548770 0.006090 0.366676
v 0.997790 2.006090 0.413298
v 0.609761 0.006090 0.252571
v 1.059248 2.006090 0.210698
v 0.647318 0.006090 0.128759
v 1.080000 2.006090 -0.000000
v 0.660000 0.006090 -0.000000
v 1.059248 2.006090 -0.210698
v 0.647318 0.006090 -0.128760
v 0.997790 2.006090 -0.413298
v 0.609760 0.006090 -0.252571
v 0.897987 2.006090 -0.600016
v 0.548770 0.006090 -0.366677
v 0.763675 2.006090 -0.763676
v 0.466690 0.006090 -0.466691
v 0.600015 2.006090 -0.897987
v 0.366676 0.006090 -0.548770
v 0.413297 2.006090 -0.997790
v 0.252571 0.006090 -0.609761
v 0.210697 2.006090 -1.059248
v 0.128759 0.006090 -0.647319
v -0.000001 2.006090 -1.080000
v -0.000001 0.006090 -0.660000
v -0.210699 2.006090 -1.059248
v -0.128760 0.006090 -0.647318
v -0.413299 2.006090 -0.997789
v -0.252572 0.006090 -0.609760
v -0.600017 2.006090 -0.897986
v -0.366677 0.006090 -0.548770
v -0.763676 2.006090 -0.763674
v -0.466691 0.006090 -0.466690
v -0.897988 2.006090 -0.600015
v -0.548770 0.006090 -0.366676
v -0.997791 2.006090 -0.413297
v -0.609761 0.006090 -0.252570
v -1.059248 2.006090 -0.210696
v -0.647318 0.006090 -0.128759
v -1.011495 2.020476 0.000000
v -0.591495 0.020476 -0.000000
v -0.992059 2.020476 0.197333
v -0.580130 0.020476 0.115395
v -0.934500 2.020476 0.387084
v -0.546471 0.020476 0.226356
v -0.841027 2.020476 0.561958
v -0.491810 0.020476 0.328618
v -0.715235 2.020476 0.715235
v -0.418250 0.020476 0.418250
v -0.561958 2.020476 0.841027
v -0.328618 0.020476 0.491810
v -0.387084 2.020476 0.934500
v -0.226357 0.020476 0.546471
v -0.197333 2.020476 0.992060
v -0.115395 0.020476 0.580130
v -0.000000 2.020476 1.011496
v -0.000000 0.020476 0.591495
v 0.197333 2.020476 0.992060
v 0.115395 0.020476 0.580130
v 0.387083 2.020476 0.934500
v 0.226356 0.020476 0.546471
v 0.561958 2.020476 0.841027
v 0.328618 0.020476 0.491810
v 0.715235 2.020476 0.715235
v 0.418250 0.020476 0.418250
v 0.841027 2.020476 0.561958
v 0.491810 0.020476 0.328618
v 0.934500 2.020476 0.387084
v 0.546471 0.020476 0.226356
v 0.992060 2.020476 0.197333
v 0.580130 0.020476 0.115395
v 1.011495 2.020476 -0.000000
v 0.591495 0.020476 -0.000000
v 0.992059 2.020476 -0.197333
v 0.580130 0.020476 -0.115395
v 0.934500 2.020476 -0.387084
v 0.546471 0.020476 -0.226357
v 0.841027 2.020476 -0.561958
v 0.491810 0.020476 -0.328619
v 0.715234 2.020476 -0.715235
v 0.418250 0.020476 -0.418250
v 0.561957 2.020476 -0.841027
v 0.328618 0.020476 -0.491810
v 0.387083 2.020476 -0.934500
v 0.226356 0.020476 -0.546471
v 0.197332 2.020476 -0.992060
v 0.115394 0.020476 -0.580130
v -0.000001 2.020476 -1.011495
v -0.000001 0.020476 -0.591496
v -0.197334 2.020476 -0.992059
v -0.115396 0.020476 -0.580130
v -0.387085 2.020476 -0.934499
v -0.226357 0.020476 -0.546470
v -0.561959 2.020476 -0.841026
v -0.328619 0.020476 -0.491810
v -0.715236 2.020476 -0.715234
v -0.418251 0.020476 -0.418250
v -0.841028 2.020476 -0.561956
v -0.491810 0.020476 -0.328618
v -0.934501 2.020476 -0.387082
v -0.546471 0.020476 -0.226356
v -0.992060 2.020476 -0.197331
v -0.580130 0.020476 -0.115394
vt 1.000000 0.000000
vt 1.000000 1.000000
vt 0.968750 1.000000
vt 0.968750 0.000000
vt 0.937500 1.000000
vt 0.937500 0.000000
vt 0.906250 1.000000
vt 0.906250 0.000000
vt 0.875000 1.000000
vt 0.875000 0.000000
vt 0.843750 1.000000
vt 0.843750 0.000000
vt 0.812500 1.000000
vt 0.812500 0.000000
vt 0.781250 1.000000
vt 0.781250 0.000000
vt 0.750000 1.000000
vt 0.750000 0.000000
vt 0.718750 1.000000
vt 0.718750 0.000000
vt 0.687500 1.000000
vt 0.687500 0.000000
vt 0.656250 1.000000
vt 0.656250 0.000000
vt 0.625000 1.000000
vt 0.625000 0.000000
vt 0.593750 1.000000
vt 0.593750 0.000000
vt 0.562500 1.000000
vt 0.562500 0.000000
vt 0.531250 1.000000
vt 0.531250 0.000000
vt 0.500000 1.000000
vt 0.500000 0.000000
vt 0.468750 1.000000
vt 0.468750 0.000000
vt 0.437500 1.000000
vt 0.437500 0.000000
vt 0.406250 1.000000
vt 0.406250 0.000000
vt 0.375000 1.000000
vt 0.375000 0.000000
vt 0.343750 1.000000
vt 0.343750 0.000000
vt 0.312500 1.000000
vt 0.312500 0.000000
vt 0.281250 1.000000
vt 0.281250 0.000000
vt 0.250000 1.000000
vt 0.250000 0.000000
vt 0.218750 1.000000
vt 0.218750 0.000000
vt 0.187500 1.000000
vt 0.187500 0.000000
vt 0.156250 1.000000
vt 0.156250 0.000000
vt 0.125000 1.000000
vt 0.125000 0.000000
vt 0.093750 1.000000
vt 0.093750 0.000000
vt 0.062500 1.000000
vt 0.062500 0.000000
vt 0.031250 1.000000
vt 0.031250 0.000000
vt 0.000000 1.000000
vt 0.000000 0.000000
vt 1.000000 0.000000
vt 0.968750 0.000000
vt 0.968750 1.000000
vt 1.000000 1.000000
vt 0.937500 0.000000
vt 0.937500 1.000000
vt 0.906250 0.000000
vt 0.906250 1.000000
vt 0.875000 0.000000
vt 0.875000 1.000000
vt 0.843750 0.000000
vt 0.843750 1.000000
vt 0.812500 0.000000
vt 0.812500 1.000000
vt 0.781250 0.000000
vt 0.781250 1.000000
vt 0.750000 0.000000
vt 0.750000 1.000000
vt 0.718750 0.000000
vt 0.718750 1.000000
vt 0.687500 0.000000
vt 0.687500 1.000000
vt 0.656250 0.000000
vt 0.656250 1.000000
vt 0.625000 0.000000
vt 0.625000 1.000000
vt 0.593750 0.000000
vt 0.593750 1.000000
vt 0.562500 0.000000
vt 0.562500 1.000000
vt 0.531250 0.000000
vt 0.531250 1.000000
vt 0.500000 0.000000
vt 0.500000 1.000000
vt 0.468750 0.000000
vt 0.468750 1.000000
vt 0.437500 0.000000
vt 0.437500 1.000000
vt 0.406250 0.000000
vt 0.406250 1.000000
vt 0.375000 0.000000
vt 0.375000 1.000000
vt 0.343750 0.000000
vt 0.343750 1.000000
vt 0.312500 0.000000
vt 0.312500 1.000000
vt 0.281250 0.000000
vt 0.281250 1.000000
vt 0.250000 0.000000
vt 0.250000 1.000000
vt 0.218750 0.000000
vt 0.218750 1.000000
vt 0.187500 0.000000
vt 0.187500 1.000000
vt 0.156250 0.000000
vt 0.156250 1.000000
vt 0.125000 0.000000
vt 0.125000 1.000000
vt 0.093750 0.000000
vt 0.093750 1.000000
vt 0.062500 0.000000
vt 0.062500 1.000000
vt 0.031250 0.000000
vt 0.031250 1.000000
vt 0.000000 0.000000
vt 0.000000 1.000000
vn -0.9741 -0.2046 0.0959
vn -0.9367 -0.2046 0.2841
vn -0.8633 -0.2046 0.4614
vn -0.7567 -0.2046 0.6210
vn -0.6210 -0.2046 0.7567
vn -0.4614 -0.2046 0.8633
vn -0.2841 -0.2046 0.9367
vn -0.0959 -0.2046 0.9741
vn 0.0959 -0.2046 0.9741
vn 0.2841 -0.2046 0.9367
vn 0.4614 -0.2046 0.8633
vn 0.6210 -0.2046 0.7567
vn 0.7567 -0.2046 0.6210
vn 0.8633 -0.2046 0.4614
vn 0.9367 -0.2046 0.2841
vn 0.9741 -0.2046 0.0959
vn 0.9741 -0.2046 -0.0959
vn 0.9367 -0.2046 -0.2841
vn 0.8633 -0.2046 -0.4614
vn 0.7567 -0.2046 -0.6210
vn 0.6210 -0.2046 -0.7567
vn 0.4614 -0.2046 -0.8633
vn 0.2841 -0.2046 -0.9367
vn 0.0959 -0.2046 -0.9741
vn -0.0959 -0.2046 -0.9741
vn -0.2841 -0.2046 -0.9367
vn -0.4614 -0.2046 -0.8633
vn -0.6210 -0.2046 -0.7567
vn -0.7567 -0.2046 -0.6210
vn -0.8633 -0.2046 -0.4614
vn -0.9367 -0.2046 -0.2841
vn -0.9741 -0.2046 -0.0959
vn 0.9741 0.2046 -0.0959
vn 0.9367 0.2046 -0.2841
vn 0.8633 0.2046 -0.4614
vn 0.7567 0.2046 -0.6210
vn 0.6210 0.2046 -0.7567
vn 0.4614 0.2046 -0.8633
vn 0.2841 0.2046 -0.9367
vn 0.0959 0.2046 -0.9741
vn -0.0959 0.2046 -0.9741
vn -0.2841 0.2046 -0.9367
vn -0.4614 0.2046 -0.8633
vn -0.6210 0.2046 -0.7567
vn -0.7567 0.2046 -0.6210
vn -0.8633 0.2046 -0.4614
vn -0.9367 0.2046 -0.2841
vn -0.9741 0.2046 -0.0959
vn -0.9741 0.2046 0.0959
vn -0.9367 0.2046 0.2841
vn -0.8633 0.2046 0.4614
vn -0.7567 0.2046 0.6210
vn -0.6210 0.2046 0.7567
vn -0.4614 0.2046 0.8633
vn -0.2841 0.2046 0.9367
vn -0.0959 0.2046 0.9741
vn 0.0959 0.2046 0.9741
vn 0.2841 0.2046 0.9367
vn 0.4614 0.2046 0.8633
vn 0.6210 0.2046 0.7567
vn 0.7567 0.2046 0.6210
vn 0.8633 0.2046 0.4614
vn 0.9367 0.2046 0.2841
vn 0.9741 0.2046 0.0959
vn -0.2055 0.9785 0.0202
vn 0.2055 -0.9785 -0.0202
vn -0.1976 0.9785 0.0599
vn 0.1976 -0.9785 -0.0599
vn -0.1821 0.9785 0.0973
vn 0.1821 -0.9785 -0.0973
vn -0.1596 0.9785 0.1310
vn 0.1596 -0.9785 -0.1310
vn -0.1310 0.9785 0.1596
vn 0.1310 -0.9785 -0.1596
vn -0.0973 0.9785 0.1821
vn 0.0973 -0.9785 -0.1821
vn -0.0599 0.9785 0.1976
vn 0.0599 -0.9785 -0.1976
vn -0.0202 0.9785 0.2055
vn 0.0202 -0.9785 -0.2055
vn 0.0202 0.9785 0.2055
vn -0.0202 -0.9785 -0.2055
vn 0.0599 0.9785 0.1976
vn -0.0599 -0.9785 -0.1976
vn 0.0973 0.9785 0.1821
vn -0.0973 -0.9785 -0.1821
vn 0.1310 0.9785 0.1596
vn -0.1310 -0.9785 -0.1596
vn 0.1596 0.9785 0.1310
vn -0.1596 -0.9785 -0.1310
vn 0.1821 0.9785 0.0973
vn -0.1821 -0.9785 -0.0973
vn 0.1976 0.9785 0.0599
vn -0.1976 -0.9785 -0.0599
vn 0.2055 0.9785 0.0202
vn -0.2055 -0.9785 -0.0202
vn 0.2055 0.9785 -0.0202
vn -0.2055 -0.9785 0.0202
vn 0.1976 0.9785 -0.0599
vn -0.1976 -0.9785 0.0599
vn 0.1821 0.9785 -0.0973
vn -0.1821 -0.9785 0.0973
vn 0.1596 0.9785 -0.1310
vn -0.1596 -0.9785 0.1310
vn 0.1310 0.9785 -0.1596
vn -0.1310 -0.9785 0.1596
vn 0.0973 0.9785 -0.1821
vn -0.0973 -0.9785 0.1821
vn 0.0599 0.9785 -0.1976
vn -0.0599 -0.9785 0.1976
vn 0.0202 0.9785 -0.2055
vn -0.0202 -0.9785 0.2055
vn -0.0202 0.9785 -0.2055
vn 0.0202 -0.9785 0.2055
vn -0.0599 0.9785 -0.1976
vn 0.0599 -0.9785 0.1976
vn -0.0973 0.9785 -0.1821
vn 0.0973 -0.9785 0.1821
vn -0.1310 0.9785 -0.1596
vn 0.1310 -0.9785 0.1596
vn -0.1596 0.9785 -0.1310
vn 0.1596 -0.9785 0.1310
vn -0.1821 0.9785 -0.0973
vn 0.1821 -0.9785 0.0973
vn -0.1976 0.9785 -0.0599
vn 0.1976 -0.9785 0.0599
vn -0.2055 0.9785 -0.0202
vn 0.2055 -0.9785 0.0202
usemtl None
s off
f 1/1/1 2/2/1 4/3/1 3/4/1
f 3/4/2 4/3/2 6/5/2 5/6/2
f 5/6/3 6/5/3 8/7/3 7/8/3
f 7/8/4 8/7/4 10/9/4 9/10/4
f 9/10/5 10/9/5 12/11/5 11/12/5
f 11/12/6 12/11/6 14/13/6 13/14/6
f 13/14/7 14/13/7 16/15/7 15/16/7
f 15/16/8 16/15/8 18/17/8 17/18/8
f 17/18/9 18/17/9 20/19/9 19/20/9
f 19/20/10 20/19/10 22/21/10 21/22/10
f 21/22/11 22/21/11 24/23/11 23/24/11
f 23/24/12 24/23/12 26/25/12 25/26/12
f 25/26/13 26/25/13 28/27/13 27/28/13
f 27/28/14 28/27/14 30/29/14 29/30/14
f 29/30/15 30/29/15 32/31/15 31/32/15
f 31/32/16 32/31/16 34/33/16 33/34/16
f 33/34/17 34/33/17 36/35/17 35/36/17
f 35/36/18 36/35/18 38/37/18 37/38/18
f 37/38/19 38/37/19 40/39/19 39/40/19
f 39/40/20 40/39/20 42/41/20 41/42/20
f 41/42/21 42/41/21 44/43/21 43/44/21
f 43/44/22 44/43/22 46/45/22 45/46/22
f 45/46/23 46/45/23 48/47/23 47/48/23
f 47/48/24 48/47/24 50/49/24 49/50/24
f 49/50/25 50/49/25 52/51/25 51/52/25
f 51/52/26 52/51/26 54/53/26 53/54/26
f 53/54/27 54/53/27 56/55/27 55/56/27
f 55/56/28 56/55/28 58/57/28 57/58/28
f 57/58/29 58/57/29 60/59/29 59/60/29
f 59/60/30 60/59/30 62/61/30 61/62/30
f 61/62/31 62/61/31 64/63/31 63/64/31
f 63/64/32 64/63/32 2/65/32 1/66/32
f 65/67/33 67/68/33 68/69/33 66/70/33
f 67/68/34 69/71/34 70/72/34 68/69/34
f 69/71/35 71/73/35 72/74/35 70/72/35
f 71/73/36 73/75/36 74/76/36 72/74/36
f 73/75/37 75/77/37 76/78/37 74/76/37
f 75/77/38 77/79/38 78/80/38 76/78/38
f 77/79/39 79/81/39 80/82/39 78/80/39
f 79/81/40 81/83/40 82/84/40 80/82/40
f 81/83/41 83/85/41 84/86/41 82/84/41
f 83/85/42 85/87/42 86/88/42 84/86/42
f 85/87/43 87/89/43 88/90/43 86/88/43
f 87/89/44 89/91/44 90/92/44 88/90/44
f 89/91/45 91/93/45 92/94/45 90/92/45
f 91/93/46 93/95/46 94/96/46 92/94/46
f 93/95/47 95/97/47 96/98/47 94/96/47
f 95/97/48 97/99/48 98/100/48 96/98/48
f 97/99/49 99/101/49 100/102/49 98/100/49
f 99/101/50 101/103/50 102/104/50 100/102/50
f 101/103/51 103/105/51 104/106/51 102/104/51
f 103/105/52 105/107/52 106/108/52 104/106/52
f 105/107/53 107/109/53 108/110/53 106/108/53
f 107/109/54 109/111/54 110/112/54 108/110/54
f 109/111/55 111/113/55 112/114/55 110/112/55
f 111/113/56 113/115/56 114/116/56 112/114/56
f 113/115/57 115/117/57 116/118/57 114/116/57
f 115/117/58 117/119/58 118/120/58 116/118/58
f 117/119/59 119/121/59 120/122/59 118/120/59
f 119/121/60 121/123/60 122/124/60 120/122/60
f 121/123/61 123/125/61 124/126/61 122/124/61
f 123/125/62 125/127/62 126/128/62 124/126/62
f 125/127/63 127/129/63 128/130/63 126/128/63
f 127/129/64 65/131/64 66/132/64 128/130/64
f 1/1/65 3/4/65 67/68/65 65/67/65
f 4/3/66 2/2/66 66/70/66 68/69/66
f 3/4/67 5/6/67 69/71/67 67/68/67
f 6/5/68 4/3/68 68/69/68 70/72/68
f 5/6/69 7/8/69 71/73/69 69/71/69
f 8/7/70 6/5/70 70/72/70 72/74/70
f 7/8/71 9/10/71 73/75/71 71/73/71
f 10/9/72 8/7/72 72/74/72 74/76/72
f 9/10/73 11/12/73 75/77/73 73/75/73
f 12/11/74 10/9/74 74/76/74 76/78/74
f 11/12/75 13/14/75 77/79/75 75/77/75
f 14/13/76 12/11/76 76/78/76 78/80/76
f 13/14/77 15/16/77 79/81/77 77/79/77
f 16/15/78 14/13/78 78/80/78 80/82/78
f 15/16/79 17/18/79 81/83/79 79/81/79
f 18/17/80 16/15/80 80/82/80 82/84/80
f 17/18/81 19/20/81 83/85/81 81/83/81
f 20/19/82 18/17/82 82/84/82 84/86/82
f 19/20/83 21/22/83 85/87/83 83/85/83
f 22/21/84 20/19/84 84/86/84 86/88/84
f 21/22/85 23/24/85 87/89/85 85/87/85
f 24/23/86 22/21/86 86/88/86 88/90/86
f 23/24/87 25/26/87 89/91/87 87/89/87
f 26/25/88 24/23/88 88/90/88 90/92/88
f 25/26/89 27/28/89 91/93/89 89/91/89
f 28/27/90 26/25/90 90/92/90 92/94/90
f 27/28/91 29/30/91 93/95/91 91/93/91
f 30/29/92 28/27/92 92/94/92 94/96/92
f 29/30/93 31/32/93 95/97/93 93/95/93
f 32/31/94 30/29/94 94/96/94 96/98/94
f 31/32/95 33/34/95 97/99/95 95/97/95
f 34/33/96 32/31/96 96/98/96 98/100/96
f 33/34/97 35/36/97 99/101/97 97/99/97
f 36/35/98 34/33/98 98/100/98 100/102/98
f 35/36/99 37/38/99 101/103/99 99/101/99
f 38/37/100 36/35/100 100/102/100 102/104/100
f 37/38/101 39/40/101 103/105/101 101/103/101
f 40/39/102 38/37/102 102/104/102 104/106/102
f 39/40/103 41/42/103 105/107/103 103/105/103
f 42/41/104 40/39/104 104/106/104 106/108/104
f 41/42/105 43/44/105 107/109/105 105/107/105
f 44/43/106 42/41/106 106/108/106 108/110/106
f 43/44/107 45/46/107 109/111/107 107/109/107
f 46/45/108 44/43/108 108/110/108 110/112/108
f 45/46/109 47/48/109 111/113/109 109/111/109
f 48/47/110 46/45/110 110/112/110 112/114/110
f 47/48/111 49/50/111 113/115/111 111/113/111
f 50/49/112 48/47/112 112/114/112 114/116/112
f 49/50/113 51/52/113 115/117/113 113/115/113
f 52/51/114 50/49/114 114/116/114 116/118/114
f 51/52/115 53/54/115 117/119/115 115/117/115
f 54/53/116 52/51/116 116/118/116 118/120/116
f 53/54/117 55/56/117 119/121/117 117/119/117
f 56/55/118 54/53/118 118/120/118 120/122/118
f 55/56/119 57/58/119 121/123/119 119/121/119
f 58/57/120 56/55/120 120/122/120 122/124/120
f 57/58/121 59/60/121 123/125/121 121/123/121
f 60/59/122 58/57/122 122/124/122 124/126/122
f 59/60/123 61/62/123 125/127/123 123/125/123
f 62/61/124 60/59/124 124/126/124 126/128/124
f 61/62/125 63/64/125 127/129/125 125/127/125
f 64/63/126 62/61/126 126/128/126 128/130/126
f 63/64/127 1/66/127 65/131/127 127/129/127
f 2/65/128 64/63/128 128/130/128 66/132/128
o Circle
v -0.650000 0.042165 -0.000000
v -0.637510 0.042165 -0.126809
v -0.600522 0.042165 -0.248744
v -0.540455 0.042165 -0.361121
v -0.459619 0.042165 -0.459619
v -0.361121 0.042165 -0.540455
v -0.248744 0.042165 -0.600522
v -0.126809 0.042165 -0.637510
v 0.000000 0.042165 -0.650000
v 0.126809 0.042165 -0.637510
v 0.248744 0.042165 -0.600522
v 0.361121 0.042165 -0.540455
v 0.459619 0.042165 -0.459619
v 0.540455 0.042165 -0.361121
v 0.600522 0.042165 -0.248744
v 0.637510 0.042165 -0.126809
v 0.650000 0.042165 0.000000
v 0.637510 0.042165 0.126809
v 0.600522 0.042165 0.248745
v 0.540455 0.042165 0.361121
v 0.459619 0.042165 0.459620
v 0.361120 0.042165 0.540455
v 0.248744 0.042165 0.600522
v 0.126808 0.042165 0.637510
v -0.000001 0.042165 0.650000
v -0.126809 0.042165 0.637510
v -0.248745 0.042165 0.600521
v -0.361121 0.042165 0.540455
v -0.459620 0.042165 0.459619
v -0.540456 0.042165 0.361120
v -0.600522 0.042165 0.248743
v -0.637511 0.042165 0.126808
v -0.650000 0.092165 -0.000000
v -0.637510 0.092165 -0.126809
v -0.600522 0.092165 -0.248744
v -0.540455 0.092165 -0.361121
v -0.459619 0.092165 -0.459619
v -0.361121 0.092165 -0.540455
v -0.248744 0.092165 -0.600522
v -0.126809 0.092165 -0.637510
v -0.000000 0.092163 -0.650000
v 0.126809 0.092163 -0.637510
v 0.248744 0.092165 -0.600522
v 0.361121 0.092165 -0.540455
v 0.459619 0.092165 -0.459619
v 0.540455 0.092163 -0.361121
v 0.600522 0.092163 -0.248744
v 0.637510 0.092165 -0.126808
v 0.650000 0.092165 0.000000
v 0.637510 0.092165 0.126809
v 0.600522 0.092165 0.248745
v 0.540455 0.092163 0.361121
v 0.459619 0.092165 0.459620
v 0.361120 0.092165 0.540455
v 0.248744 0.092165 0.600522
v 0.126808 0.092165 0.637510
v -0.000001 0.092165 0.650000
v -0.126809 0.092163 0.637510
v -0.248745 0.092165 0.600521
v -0.361121 0.092163 0.540455
v -0.459620 0.092165 0.459619
v -0.540456 0.092165 0.361120
v -0.600522 0.092165 0.248743
v -0.637511 0.092165 0.126808
vt 0.500000 1.000000
vt 0.402455 0.990393
vt 0.308658 0.961940
vt 0.222215 0.915735
vt 0.146447 0.853553
vt 0.084265 0.777785
vt 0.038060 0.691342
vt 0.009607 0.597545
vt 0.000000 0.500000
vt 0.009607 0.402455
vt 0.038060 0.308658
vt 0.084265 0.222215
vt 0.146447 0.146447
vt 0.222215 0.084265
vt 0.308658 0.038060
vt 0.402455 0.009607
vt 0.500000 0.000000
vt 0.597545 0.009607
vt 0.691342 0.038060
vt 0.777785 0.084265
vt 0.853554 0.146447
vt 0.915735 0.222215
vt 0.961940 0.308659
vt 0.990393 0.402455
vt 1.000000 0.500000
vt 0.990393 0.597546
vt 0.961940 0.691342
vt 0.915734 0.777786
vt 0.853553 0.853554
vt 0.777785 0.915735
vt 0.691341 0.961940
vt 0.597544 0.990393
vt 0.500000 1.000000
vt 0.597544 0.990393
vt 0.691341 0.961940
vt 0.777785 0.915735
vt 0.853553 0.853554
vt 0.915734 0.777786
vt 0.961940 0.691342
vt 0.990393 0.597546
vt 1.000000 0.500000
vt 0.990393 0.402455
vt 0.961940 0.308659
vt 0.915735 0.222215
vt 0.853554 0.146447
vt 0.777785 0.084265
vt 0.691342 0.038060
vt 0.597545 0.009607
vt 0.500000 0.000000
vt 0.402455 0.009607
vt 0.308658 0.038060
vt 0.222215 0.084265
vt 0.146447 0.146447
vt 0.084265 0.222215
vt 0.038060 0.308658
vt 0.009607 0.402455
vt 0.000000 0.500000
vt 0.009607 0.597545
vt 0.038060 0.691342
vt 0.084265 0.777785
vt 0.146447 0.853553
vt 0.222215 0.915735
vt 0.308658 0.961940
vt 0.402455 0.990393
vn 0.0000 -1.0000 -0.0000
vn 0.0000 1.0000 0.0000
vn -0.9952 0.0000 -0.0980
vn -0.9569 0.0000 -0.2903
vn -0.8819 0.0000 -0.4714
vn -0.7730 0.0000 -0.6344
vn -0.6344 0.0000 -0.7730
vn -0.4714 0.0000 -0.8819
vn -0.2903 0.0000 -0.9569
vn -0.0980 0.0000 -0.9952
vn 0.0980 0.0000 -0.9952
vn 0.2903 0.0000 -0.9569
vn 0.4714 0.0000 -0.8819
vn 0.6344 0.0000 -0.7730
vn 0.7730 0.0000 -0.6344
vn 0.8819 0.0000 -0.4714
vn 0.9569 0.0000 -0.2903
vn 0.9952 0.0000 -0.0980
vn 0.9952 0.0000 0.0980
vn 0.9569 0.0000 0.2903
vn 0.8819 0.0000 0.4714
vn 0.7730 0.0000 0.6344
vn 0.6344 0.0000 0.7730
vn 0.4714 0.0000 0.8819
vn 0.2903 0.0000 0.9569
vn 0.0980 0.0000 0.9952
vn -0.0980 0.0000 0.9952
vn -0.2903 0.0000 0.9569
vn -0.4714 0.0000 0.8819
vn -0.6344 0.0000 0.7730
vn -0.7730 0.0000 0.6344
vn -0.8819 0.0000 0.4714
vn -0.9569 0.0000 0.2903
vn -0.9952 -0.0000 0.0980
usemtl None
s off
f 129/133/129 130/134/129 131/135/129 132/136/129 133/137/129 134/138/129 135/139/129 136/140/129 137/141/129 138/142/129 139/143/129 140/144/129 141/145/129 142/146/129 143/147/129 144/148/129 145/149/129 146/150/129 147/151/129 148/152/129 149/153/129 150/154/129 151/155/129 152/156/129 153/157/129 154/158/129 155/159/129 156/160/129 157/161/129 158/162/129 159/163/129 160/164/129
f 161/165/130 192/166/130 191/167/130 190/168/130 189/169/130 188/170/130 187/171/130 186/172/130 185/173/130 184/174/130 183/175/130 182/176/130 181/177/130 180/178/130 179/179/130 178/180/130 177/181/130 176/182/130 175/183/130 174/184/130 173/185/130 172/186/130 171/187/130 170/188/130 169/189/130 168/190/130 167/191/130 166/192/130 165/193/130 164/194/130 163/195/130 162/196/130
f 130/134/131 129/133/131 161/165/131 162/196/131
f 131/135/132 130/134/132 162/196/132 163/195/132
f 132/136/133 131/135/133 163/195/133 164/194/133
f 133/137/134 132/136/134 164/194/134 165/193/134
f 134/138/135 133/137/135 165/193/135 166/192/135
f 135/139/136 134/138/136 166/192/136 167/191/136
f 136/140/137 135/139/137 167/191/137 168/190/137
f 137/141/138 136/140/138 168/190/138 169/189/138
f 138/142/139 137/141/139 169/189/139 170/188/139
f 139/143/140 138/142/140 170/188/140 171/187/140
f 140/144/141 139/143/141 171/187/141 172/186/141
f 141/145/142 140/144/142 172/186/142 173/185/142
f 142/146/143 141/145/143 173/185/143 174/184/143
f 143/147/144 142/146/144 174/184/144 175/183/144
f 144/148/145 143/147/145 175/183/145 176/182/145
f 145/149/146 144/148/146 176/182/146 177/181/146
f 146/150/147 145/149/147 177/181/147 178/180/147
f 147/151/148 146/150/148 178/180/148 179/179/148
f 148/152/149 147/151/149 179/179/149 180/178/149
f 149/153/150 148/152/150 180/178/150 181/177/150
f 150/154/151 149/153/151 181/177/151 182/176/151
f 151/155/152 150/154/152 182/176/152 183/175/152
f 152/156/153 151/155/153 183/175/153 184/174/153
f 153/157/154 152/156/154 184/174/154 185/173/154
f 154/158/155 153/157/155 185/173/155 186/172/155
f 155/159/156 154/158/156 186/172/156 187/171/156
f 156/160/157 155/159/157 187/171/157 188/170/157
f 157/161/158 156/160/158 188/170/158 189/169/158
f 158/162/159 157/161/159 189/169/159 190/168/159
f 159/163/160 158/162/160 190/168/160 191/167/160
f 160/164/161 159/163/161 191/167/161 192/166/161
f 129/133/162 160/164/162 192/166/162 161/165/162
